<?xml version="1.0" encoding="utf-8"?>
<svg version="1.1" id="Layer_1" xmlns="http://www.w3.org/2000/svg" xmlns:xlink="http://www.w3.org/1999/xlink" x="0px" y="0px" viewBox="0 0 32 32" style="enable-background:new 0 0 32 32;" xml:space="preserve">
<style type="text/css">.st0{fill:#666666;}</style>
<path class="st0" d="M16,16c4.1,0,7.5-3.4,7.5-7.5S20.1,1,16,1S8.5,4.4,8.5,8.5S11.9,16,16,16z M21.2,17.9h-1c-1.3,0.6-2.7,0.9-4.3,0.9s-3-0.3-4.3-0.9h-1c-4.3,0-7.9,3.5-7.9,7.9v2.4c0,1.6,1.3,2.8,2.8,2.8h20.6c1.6,0,2.8-1.3,2.8-2.8v-2.4C29.1,21.4,25.6,17.9,21.2,17.9z"/>
</svg>