<?xml version="1.0" encoding="utf-8"?>
<!-- Generator: Adobe Illustrator 22.1.0, SVG Export Plug-In . SVG Version: 6.00 Build 0)  -->
<svg version="1.1" id="Layer_1" xmlns="http://www.w3.org/2000/svg" xmlns:xlink="http://www.w3.org/1999/xlink" x="0px" y="0px"
	 viewBox="0 0 32 32" style="enable-background:new 0 0 32 32;" xml:space="preserve">
<style type="text/css">
	.st0{fill:#FFFFFF;}
</style>
<g>
	<path class="st0" d="M16,31.6C8.5,31.6,2.4,25.5,2.4,18c0-3.4,1.3-6.6,3.4-9.2c0.8-1,2.3-1,3.3-0.2c1,0.8,1,2.3,0.2,3.3
		C7.8,13.5,7,15.7,7,18c0,4.9,4.1,9,9,9s9-4.1,9-9c0-2.3-0.8-4.4-2.3-6.1c-0.8-1-0.8-2.5,0.2-3.3s2.5-0.8,3.3,0.2
		c2.3,2.5,3.4,5.7,3.4,9.2C29.6,25.5,23.5,31.6,16,31.6z"/>
	<path class="st0" d="M16,20.3c-1.3,0-2.3-1-2.3-2.3V2.7c0-1.3,1-2.3,2.3-2.3s2.3,1,2.3,2.3V18C18.3,19.3,17.3,20.3,16,20.3z"/>
</g>
</svg>
