<?xml version="1.0" encoding="utf-8"?>
<svg version="1.1" id="Layer_1" xmlns="http://www.w3.org/2000/svg" xmlns:xlink="http://www.w3.org/1999/xlink" x="0px" y="0px" viewBox="0 0 32 32" style="enable-background:new 0 0 32 32;" xml:space="preserve">
<style type="text/css">.st0{fill:#FFFFFF;}</style>
<path class="st0" d="M26.5,1H5.4c-1,0-1.8,0.8-1.8,1.8v26.5c0,1,0.8,1.8,1.8,1.8h16l7.1-7.1V2.8C28.3,1.8,27.5,1,26.5,1z M11.6,6.9c0-0.3,0.3-0.6,0.6-0.6h12.4c0.3,0,0.6,0.3,0.6,0.6v1.4c0,0.3-0.3,0.6-0.6,0.6H12.2c-0.3,0-0.6-0.3-0.6-0.6V6.9z M11.6,12.5c0-0.3,0.3-0.6,0.6-0.6h12.4c0.3,0,0.6,0.3,0.6,0.6v1.4c0,0.3-0.3,0.6-0.6,0.6H12.2c-0.3,0-0.6-0.3-0.6-0.6V12.5z M11.6,18.1c0-0.3,0.3-0.6,0.6-0.6h12.4c0.3,0,0.6,0.3,0.6,0.6v1.4c0,0.3-0.3,0.6-0.6,0.6H12.2c-0.3,0-0.6-0.3-0.6-0.6V18.1z M10.4,25.6c0,0.3-0.3,0.6-0.6,0.6H7.7c-0.3,0-0.6-0.3-0.6-0.6v-2.2c0-0.3,0.3-0.6,0.6-0.6h2.2c0.3,0,0.6,0.3,0.6,0.6C10.5,23.4,10.5,25.6,10.4,25.6z M10.4,19.9c0,0.3-0.3,0.6-0.6,0.6H7.7c-0.3,0-0.6-0.3-0.6-0.6v-2.2c0-0.3,0.3-0.6,0.6-0.6h2.2c0.3,0,0.6,0.3,0.6,0.6C10.5,17.6,10.5,19.9,10.4,19.9z M10.4,14.3c0,0.3-0.3,0.6-0.6,0.6H7.7c-0.3,0-0.6-0.3-0.6-0.6v-2.2c0-0.3,0.3-0.6,0.6-0.6h2.2c0.3,0,0.6,0.3,0.6,0.6C10.5,12.1,10.5,14.3,10.4,14.3z M10.4,8.7c0,0.3-0.3,0.6-0.6,0.6H7.7C7.4,9.2,7.1,9,7.1,8.7V6.4c0-0.3,0.3-0.6,0.6-0.6h2.2c0.3,0,0.6,0.3,0.6,0.6C10.5,6.4,10.5,8.7,10.4,8.7z M18,25.1c0,0.3-0.3,0.6-0.6,0.6h-5.4c-0.3,0-0.6-0.3-0.6-0.6v-1.4c0-0.3,0.3-0.6,0.6-0.6h5.4c0.3,0,0.6,0.3,0.6,0.6V25.1z M21.2,28.5v-4.6h4.6L21.2,28.5z"/>
</svg>