<?xml version="1.0" encoding="utf-8"?>
<svg version="1.1" id="Layer_1" xmlns="http://www.w3.org/2000/svg" xmlns:xlink="http://www.w3.org/1999/xlink" x="0px" y="0px" viewBox="0 0 32 32" style="enable-background:new 0 0 32 32;" xml:space="preserve">
<style type="text/css">.st0{fill:#666666;}</style>
<path class="st0" d="M16,1C7.7,1,1,7.7,1,16s6.7,15,15,15s15-6.7,15-15S24.3,1,16,1z M21,22.6c-0.2,0.2-0.5,0.5-0.7,0.7c-0.2,0.2-0.3,0.4-0.4,0.6c-0.1,0.3-0.2,0.7-0.3,1l-1.1,2.8c-0.8,0.2-1.7,0.3-2.6,0.3v-1.7c0.1-0.8-0.5-2.2-1.4-3.1c-0.4-0.4-0.6-0.9-0.6-1.4V20c0-0.7-0.4-1.4-1-1.7c-0.9-0.5-2.1-1.2-3-1.6c-0.7-0.3-1.3-0.8-1.9-1.3l0,0c-0.4-0.4-0.8-0.8-1.1-1.3c-0.6-0.8-1.5-2.2-2.1-3.1c1.2-2.8,3.5-5,6.2-6.2l1.5,0.7c0.6,0.3,1.4-0.1,1.4-0.9V4.1c0.5-0.1,1-0.1,1.5-0.1l1.7,1.7c0.4,0.4,0.4,1,0,1.4L17,7.3l-0.6,0.6c-0.2,0.2-0.2,0.5,0,0.7l0.3,0.3c0.2,0.2,0.2,0.5,0,0.7l-0.5,0.5c-0.1,0.1-0.2,0.1-0.3,0.1h-0.5c-0.1,0-0.2,0-0.3,0.1l-0.6,0.6c-0.2,0.1-0.2,0.4-0.1,0.6l0.9,1.9c0.2,0.3-0.1,0.7-0.4,0.7h-0.3c-0.1,0-0.2,0-0.3-0.1l-0.6-0.5c-0.3-0.2-0.6-0.3-0.9-0.2l-1.9,0.6c-0.3,0.1-0.5,0.4-0.5,0.7c0,0.3,0.2,0.5,0.4,0.6l0.7,0.3c0.6,0.3,1.2,0.4,1.8,0.4s1.4,1.7,1.9,1.9h4c0.5,0,1,0.2,1.4,0.6l0.8,0.8c0.3,0.3,0.5,0.8,0.5,1.3C21.8,21.4,21.5,22.1,21,22.6z M26.2,17.1c-0.4-0.1-0.7-0.3-0.9-0.6l-1.1-1.6c-0.3-0.5-0.3-1.1,0-1.6l1.2-1.8c0.1-0.2,0.3-0.4,0.6-0.5l0.8-0.4c0.8,1.6,1.3,3.5,1.3,5.4c0,0.5,0,1-0.1,1.5L26.2,17.1z"/>
</svg>