<?xml version="1.0" encoding="utf-8"?>
<svg version="1.1" id="Layer_1" xmlns="http://www.w3.org/2000/svg" xmlns:xlink="http://www.w3.org/1999/xlink" x="0px" y="0px" viewBox="0 0 200 200" style="enable-background:new 0 0 200 200;" xml:space="preserve">
<style type="text/css">.st0{fill:#FFFFFF;}.st1{fill:#666666;}</style>
<rect y="0" class="st0" width="200" height="200"/>
<g>
<path class="st1" d="M200,200v-7.9c-1.5-0.6-3.2-1.2-5.1-2c-3.4-1.4-7.3-3-11.6-4.7c-4.3-1.8-8.8-3.7-13.6-5.7c-4.8-2.1-9.5-4.1-14.1-6.1c-4.7-2-9.2-4-13.6-5.9c-4.4-1.9-8.3-3.6-11.7-5.1v-18.8c0-0.8,0.3-2.2,0.8-4.1c0.5-1.9,1.1-3.8,1.8-5.9c0.7-2.4,1.5-4.9,2.4-7.5c3.1-5.8,5.5-12.3,7.3-19.6c1.8-7.2,2.6-14.9,2.6-22.8c0-10.9-1.1-20.2-3.5-27.6c-2.3-7.6-5.5-13.7-9.5-18.3c-4-4.7-8.7-8-14-10.1c-5.3-2.1-10.9-3.1-17-3.1c-6.1,0-11.8,1.1-17.1,3.2s-9.9,5.6-13.9,10.3c-4,4.7-7.1,10.8-9.4,18.3s-3.5,16.7-3.5,27.4c0,8.2,0.9,16.1,2.7,23.3c1.8,7.3,4.3,13.9,7.4,19.7c0.9,2.5,1.6,4.8,2.2,6.9c0.5,1.8,1,3.6,1.5,5.4c0.5,1.8,0.8,3.1,1,3.9v18.3c-3.3,1.5-7.2,3.2-11.6,5.1c-4.4,1.9-9.1,3.9-14,6.1c-4.9,2.1-9.9,4.3-14.9,6.4s-9.7,4.2-14.2,6c-4.5,1.9-8.6,3.5-12.2,5c-2.1,0.8-3.9,1.5-5.5,2.1v7.8H200z"/>
</g>
</svg>