<?xml version="1.0" encoding="utf-8"?>
<!-- Generator: Adobe Illustrator 23.0.0, SVG Export Plug-In . SVG Version: 6.00 Build 0)  -->
<svg version="1.1" id="Layer_1" xmlns="http://www.w3.org/2000/svg" xmlns:xlink="http://www.w3.org/1999/xlink" x="0px" y="0px"
	 viewBox="0 0 32 32" style="enable-background:new 0 0 32 32;" xml:space="preserve">
<style type="text/css">
	.st0{fill:#666666;}
</style>
<path class="st0" d="M27.8,18.2l2.6,1.6c0.3,0.2,0.4,0.5,0.3,0.8c-0.7,2.2-1.9,4.3-3.4,5.9c-0.2,0.2-0.6,0.3-0.9,0.1L23.7,25
	c-1.1,0.9-2.4,1.7-3.8,2.2v3c0,0.3-0.2,0.6-0.6,0.7c-2.2,0.5-4.5,0.5-6.8,0c-0.3-0.1-0.6-0.4-0.6-0.7v-3C10.6,26.7,9.2,26,8.2,25
	l-2.6,1.7c-0.3,0.2-0.7,0.1-0.9-0.1C3,24.9,1.9,23,1.2,20.8c-0.1-0.3,0-0.7,0.3-0.8l2.6-1.6c-0.3-1.5-0.3-2.9,0-4.4l-2.6-1.6
	c-0.3-0.2-0.4-0.5-0.3-0.8c0.7-2.3,1.9-4.3,3.4-6c0.3-0.3,0.6-0.3,0.9-0.2L8.2,7c1.1-0.9,2.4-1.7,3.8-2.2v-3c0-0.3,0.2-0.6,0.6-0.7
	c2.2-0.5,4.5-0.5,6.8,0C19.7,1.1,20,1.4,20,1.7v3C21.3,5.3,22.7,6,23.7,7l2.7-1.6c0.3-0.2,0.7-0.1,0.9,0.1c1.6,1.7,2.7,3.7,3.4,5.9
	c0.1,0.3,0,0.7-0.3,0.8l-2.6,1.6C28,15.3,28,16.8,27.8,18.2L27.8,18.2z M21,16.1c0-2.7-2.2-5-5-5s-5,2.2-5,5s2.2,5,5,5
	S21,18.8,21,16.1z"/>
</svg>
